<svg xmlns="http://www.w3.org/2000/svg" xmlns:xlink="http://www.w3.org/1999/xlink" width="500" zoomAndPan="magnify" viewBox="0 0 375 112.499997" height="150" preserveAspectRatio="xMidYMid meet" version="1.0"><defs><g><g id="id1"/></g><clipPath id="id2"><path d="M 0.828125 30 L 14 30 L 14 80 L 0.828125 80 Z M 0.828125 30 " clip-rule="nonzero"/></clipPath></defs><g clip-path="url(#id2)"><g fill="rgb(100%, 100%, 100%)" fill-opacity="1"><g transform="translate(-12.658103, 79.836229)"><g><path d="M 22.15625 -10.296875 L 26.5 -10.296875 L 26.5 0 L 20.3125 0 C 15.863281 0 12.421875 -0.976562 9.984375 -2.9375 C 7.546875 -4.90625 6.328125 -8.28125 6.328125 -13.0625 L 6.328125 -29.546875 L 2.625 -29.546875 L 2.625 -39.640625 L 6.328125 -39.640625 L 6.328125 -49.296875 L 18.46875 -49.296875 L 18.46875 -39.640625 L 26.421875 -39.640625 L 26.421875 -29.546875 L 18.46875 -29.546875 L 18.46875 -13.0625 C 18.46875 -11.21875 19.695312 -10.296875 22.15625 -10.296875 Z M 22.15625 -10.296875 "/></g></g></g></g><g fill="rgb(100%, 100%, 100%)" fill-opacity="1"><g transform="translate(16.814216, 79.836229)"><g><path d="M 17.46875 -52.5625 L 17.46875 -33.8125 C 19.976562 -37.976562 23.984375 -40.0625 29.484375 -40.0625 C 34.023438 -40.0625 37.703125 -38.546875 40.515625 -35.515625 C 43.335938 -32.484375 44.75 -28.363281 44.75 -23.15625 L 44.75 0 L 32.671875 0 L 32.671875 -21.515625 C 32.671875 -24.078125 31.992188 -26.054688 30.640625 -27.453125 C 29.296875 -28.847656 27.4375 -29.546875 25.0625 -29.546875 C 22.695312 -29.546875 20.835938 -28.847656 19.484375 -27.453125 C 18.140625 -26.054688 17.46875 -24.078125 17.46875 -21.515625 L 17.46875 0 L 5.328125 0 L 5.328125 -52.5625 Z M 17.46875 -52.5625 "/></g></g></g><g fill="rgb(100%, 100%, 100%)" fill-opacity="1"><g transform="translate(66.526567, 79.836229)"><g><path d="M 22.15625 0.5 C 16.382812 0.5 11.648438 -1.359375 7.953125 -5.078125 C 4.265625 -8.796875 2.421875 -13.734375 2.421875 -19.890625 C 2.421875 -26.046875 4.253906 -30.945312 7.921875 -34.59375 C 11.585938 -38.238281 16.332031 -40.0625 22.15625 -40.0625 C 27.988281 -40.0625 32.820312 -38.257812 36.65625 -34.65625 C 40.488281 -31.0625 42.40625 -26.066406 42.40625 -19.671875 C 42.40625 -18.296875 42.3125 -17.019531 42.125 -15.84375 L 14.84375 -15.84375 C 15.082031 -14.09375 15.863281 -12.660156 17.1875 -11.546875 C 18.507812 -10.429688 19.941406 -9.875 21.484375 -9.875 C 23.023438 -9.875 24.171875 -10.023438 24.921875 -10.328125 C 25.679688 -10.640625 26.238281 -10.945312 26.59375 -11.25 C 26.957031 -11.5625 27.421875 -12.070312 27.984375 -12.78125 L 41.125 -12.78125 C 39.988281 -8.800781 37.710938 -5.59375 34.296875 -3.15625 C 30.890625 -0.71875 26.84375 0.5 22.15625 0.5 Z M 29.765625 -23.4375 C 29.578125 -25.28125 28.769531 -26.78125 27.34375 -27.9375 C 25.925781 -29.101562 24.242188 -29.6875 22.296875 -29.6875 C 20.359375 -29.6875 18.722656 -29.101562 17.390625 -27.9375 C 16.066406 -26.78125 15.242188 -25.28125 14.921875 -23.4375 Z M 29.765625 -23.4375 "/></g></g></g><g fill="rgb(100%, 100%, 100%)" fill-opacity="1"><g transform="translate(111.409703, 79.836229)"><g/></g></g><g fill="rgb(10.5896%, 18.818665%, 38.038635%)" fill-opacity="1"><g transform="translate(132.702535, 79.836229)"><g><path d="M 32.171875 -12.53125 C 33.929688 -14.21875 34.8125 -16.625 34.8125 -19.75 C 34.8125 -22.875 33.929688 -25.285156 32.171875 -26.984375 C 30.421875 -28.691406 28.410156 -29.546875 26.140625 -29.546875 C 23.867188 -29.546875 21.851562 -28.703125 20.09375 -27.015625 C 18.34375 -25.335938 17.46875 -22.9375 17.46875 -19.8125 C 17.46875 -16.6875 18.34375 -14.269531 20.09375 -12.5625 C 21.851562 -10.863281 23.867188 -10.015625 26.140625 -10.015625 C 28.410156 -10.015625 30.421875 -10.851562 32.171875 -12.53125 Z M 17.46875 -34.453125 C 20.164062 -38.191406 24.035156 -40.0625 29.078125 -40.0625 C 34.128906 -40.0625 38.40625 -38.15625 41.90625 -34.34375 C 45.414062 -30.53125 47.171875 -25.664062 47.171875 -19.75 C 47.171875 -13.832031 45.414062 -8.976562 41.90625 -5.1875 C 38.40625 -1.394531 34.164062 0.5 29.1875 0.5 C 24.21875 0.5 20.3125 -1.582031 17.46875 -5.75 L 17.46875 0 L 5.328125 0 L 5.328125 -52.5625 L 17.46875 -52.5625 Z M 17.46875 -34.453125 "/></g></g></g><g fill="rgb(10.5896%, 18.818665%, 38.038635%)" fill-opacity="1"><g transform="translate(182.27283, 79.836229)"><g><path d="M 29.109375 -12.421875 C 30.722656 -14.128906 31.53125 -16.59375 31.53125 -19.8125 C 31.53125 -23.03125 30.703125 -25.476562 29.046875 -27.15625 C 27.390625 -28.84375 25.425781 -29.6875 23.15625 -29.6875 C 20.882812 -29.6875 18.929688 -28.84375 17.296875 -27.15625 C 15.660156 -25.476562 14.84375 -23.03125 14.84375 -19.8125 C 14.84375 -16.59375 15.679688 -14.128906 17.359375 -12.421875 C 19.046875 -10.722656 21.023438 -9.875 23.296875 -9.875 C 25.566406 -9.875 27.503906 -10.722656 29.109375 -12.421875 Z M 8.484375 -5.109375 C 4.484375 -8.847656 2.484375 -13.769531 2.484375 -19.875 C 2.484375 -25.988281 4.472656 -30.878906 8.453125 -34.546875 C 12.429688 -38.222656 17.351562 -40.0625 23.21875 -40.0625 C 29.09375 -40.0625 34.003906 -38.222656 37.953125 -34.546875 C 41.910156 -30.878906 43.890625 -25.988281 43.890625 -19.875 C 43.890625 -13.769531 41.925781 -8.847656 38 -5.109375 C 34.070312 -1.367188 29.171875 0.5 23.296875 0.5 C 17.421875 0.5 12.484375 -1.367188 8.484375 -5.109375 Z M 8.484375 -5.109375 "/></g></g></g><g fill="rgb(10.5896%, 18.818665%, 38.038635%)" fill-opacity="1"><g transform="translate(228.647337, 79.836229)"><g><path d="M 29.109375 -12.421875 C 30.722656 -14.128906 31.53125 -16.59375 31.53125 -19.8125 C 31.53125 -23.03125 30.703125 -25.476562 29.046875 -27.15625 C 27.390625 -28.84375 25.425781 -29.6875 23.15625 -29.6875 C 20.882812 -29.6875 18.929688 -28.84375 17.296875 -27.15625 C 15.660156 -25.476562 14.84375 -23.03125 14.84375 -19.8125 C 14.84375 -16.59375 15.679688 -14.128906 17.359375 -12.421875 C 19.046875 -10.722656 21.023438 -9.875 23.296875 -9.875 C 25.566406 -9.875 27.503906 -10.722656 29.109375 -12.421875 Z M 8.484375 -5.109375 C 4.484375 -8.847656 2.484375 -13.769531 2.484375 -19.875 C 2.484375 -25.988281 4.472656 -30.878906 8.453125 -34.546875 C 12.429688 -38.222656 17.351562 -40.0625 23.21875 -40.0625 C 29.09375 -40.0625 34.003906 -38.222656 37.953125 -34.546875 C 41.910156 -30.878906 43.890625 -25.988281 43.890625 -19.875 C 43.890625 -13.769531 41.925781 -8.847656 38 -5.109375 C 34.070312 -1.367188 29.171875 0.5 23.296875 0.5 C 17.421875 0.5 12.484375 -1.367188 8.484375 -5.109375 Z M 8.484375 -5.109375 "/></g></g></g><g fill="rgb(10.5896%, 18.818665%, 38.038635%)" fill-opacity="1"><g transform="translate(275.021844, 79.836229)"><g><path d="M 17.46875 0 L 5.328125 0 L 5.328125 -52.5625 L 17.46875 -52.5625 L 17.46875 -23.078125 L 29.765625 -39.640625 L 46.09375 -39.640625 L 29.125 -19.390625 L 46.09375 0 L 29.96875 0 L 17.46875 -15.84375 Z M 17.46875 0 "/></g></g></g><g fill="rgb(10.5896%, 18.818665%, 38.038635%)" fill-opacity="1"><g transform="translate(321.396351, 79.836229)"><g/></g></g><g fill="rgb(10.5896%, 18.818665%, 38.038635%)" fill-opacity="1"><g transform="translate(342.701637, 79.836229)"><g><path d="M 18.046875 -34.96875 C 18.046875 -33.101562 17.40625 -31.53125 16.125 -30.25 C 14.84375 -28.976562 13.265625 -28.34375 11.390625 -28.34375 C 9.523438 -28.34375 7.953125 -28.976562 6.671875 -30.25 C 5.398438 -31.53125 4.765625 -33.101562 4.765625 -34.96875 C 4.765625 -36.84375 5.398438 -38.421875 6.671875 -39.703125 C 7.953125 -40.984375 9.523438 -41.625 11.390625 -41.625 C 13.265625 -41.625 14.84375 -40.984375 16.125 -39.703125 C 17.40625 -38.421875 18.046875 -36.84375 18.046875 -34.96875 Z M 18.046875 -6.640625 C 18.046875 -4.765625 17.40625 -3.1875 16.125 -1.90625 C 14.84375 -0.632812 13.265625 0 11.390625 0 C 9.523438 0 7.953125 -0.632812 6.671875 -1.90625 C 5.398438 -3.1875 4.765625 -4.765625 4.765625 -6.640625 C 4.765625 -8.515625 5.398438 -10.085938 6.671875 -11.359375 C 7.953125 -12.640625 9.523438 -13.28125 11.390625 -13.28125 C 13.265625 -13.28125 14.84375 -12.640625 16.125 -11.359375 C 17.40625 -10.085938 18.046875 -8.515625 18.046875 -6.640625 Z M 18.046875 -6.640625 "/></g></g></g></svg>