<svg xmlns="http://www.w3.org/2000/svg" xmlns:xlink="http://www.w3.org/1999/xlink" width="500" zoomAndPan="magnify" viewBox="0 0 375 112.499997" height="150" preserveAspectRatio="xMidYMid meet" version="1.0"><defs><g><g id="id1"/></g></defs><g fill="rgb(100%, 100%, 100%)" fill-opacity="1"><g transform="translate(0.829651, 80.483603)"><g><path d="M 21.46875 -9.984375 L 25.671875 -9.984375 L 25.671875 0 L 19.6875 0 C 15.375 0 12.035156 -0.953125 9.671875 -2.859375 C 7.304688 -4.765625 6.125 -8.035156 6.125 -12.671875 L 6.125 -28.625 L 2.546875 -28.625 L 2.546875 -38.40625 L 6.125 -38.40625 L 6.125 -47.765625 L 17.890625 -47.765625 L 17.890625 -38.40625 L 25.609375 -38.40625 L 25.609375 -28.625 L 17.890625 -28.625 L 17.890625 -12.671875 C 17.890625 -10.878906 19.082031 -9.984375 21.46875 -9.984375 Z M 21.46875 -9.984375 "/></g></g></g><g fill="rgb(100%, 100%, 100%)" fill-opacity="1"><g transform="translate(29.391931, 80.483603)"><g><path d="M 16.9375 -50.9375 L 16.9375 -32.765625 C 19.363281 -36.796875 23.238281 -38.8125 28.5625 -38.8125 C 32.96875 -38.8125 36.535156 -37.34375 39.265625 -34.40625 C 41.992188 -31.476562 43.359375 -27.488281 43.359375 -22.4375 L 43.359375 0 L 31.65625 0 L 31.65625 -20.859375 C 31.65625 -23.335938 31 -25.25 29.6875 -26.59375 C 28.382812 -27.945312 26.585938 -28.625 24.296875 -28.625 C 22.003906 -28.625 20.203125 -27.945312 18.890625 -26.59375 C 17.585938 -25.25 16.9375 -23.335938 16.9375 -20.859375 L 16.9375 0 L 5.15625 0 L 5.15625 -50.9375 Z M 16.9375 -50.9375 "/></g></g></g><g fill="rgb(100%, 100%, 100%)" fill-opacity="1"><g transform="translate(77.569274, 80.483603)"><g><path d="M 21.46875 0.484375 C 15.875 0.484375 11.285156 -1.316406 7.703125 -4.921875 C 4.128906 -8.523438 2.34375 -13.304688 2.34375 -19.265625 C 2.34375 -25.234375 4.117188 -29.984375 7.671875 -33.515625 C 11.234375 -37.046875 15.832031 -38.8125 21.46875 -38.8125 C 27.113281 -38.8125 31.796875 -37.066406 35.515625 -33.578125 C 39.234375 -30.097656 41.09375 -25.257812 41.09375 -19.0625 C 41.09375 -17.726562 41 -16.488281 40.8125 -15.34375 L 14.390625 -15.34375 C 14.617188 -13.644531 15.375 -12.253906 16.65625 -11.171875 C 17.9375 -10.097656 19.320312 -9.5625 20.8125 -9.5625 C 22.3125 -9.5625 23.425781 -9.710938 24.15625 -10.015625 C 24.894531 -10.316406 25.4375 -10.613281 25.78125 -10.90625 C 26.125 -11.207031 26.570312 -11.703125 27.125 -12.390625 L 39.84375 -12.390625 C 38.75 -8.535156 36.546875 -5.425781 33.234375 -3.0625 C 29.929688 -0.695312 26.007812 0.484375 21.46875 0.484375 Z M 28.84375 -22.71875 C 28.65625 -24.5 27.875 -25.953125 26.5 -27.078125 C 25.125 -28.203125 23.492188 -28.765625 21.609375 -28.765625 C 19.734375 -28.765625 18.148438 -28.203125 16.859375 -27.078125 C 15.578125 -25.953125 14.773438 -24.5 14.453125 -22.71875 Z M 28.84375 -22.71875 "/></g></g></g><g fill="rgb(100%, 100%, 100%)" fill-opacity="1"><g transform="translate(121.066519, 80.483603)"><g/></g></g><g fill="rgb(10.5896%, 18.818665%, 38.038635%)" fill-opacity="1"><g transform="translate(141.701875, 80.483603)"><g><path d="M 31.171875 -12.140625 C 32.867188 -13.773438 33.71875 -16.101562 33.71875 -19.125 C 33.71875 -22.15625 32.867188 -24.492188 31.171875 -26.140625 C 29.472656 -27.796875 27.523438 -28.625 25.328125 -28.625 C 23.128906 -28.625 21.179688 -27.8125 19.484375 -26.1875 C 17.785156 -24.5625 16.9375 -22.234375 16.9375 -19.203125 C 16.9375 -16.171875 17.785156 -13.828125 19.484375 -12.171875 C 21.179688 -10.523438 23.128906 -9.703125 25.328125 -9.703125 C 27.523438 -9.703125 29.472656 -10.515625 31.171875 -12.140625 Z M 16.9375 -33.375 C 19.550781 -37 23.300781 -38.8125 28.1875 -38.8125 C 33.070312 -38.8125 37.210938 -36.960938 40.609375 -33.265625 C 44.003906 -29.578125 45.703125 -24.863281 45.703125 -19.125 C 45.703125 -13.394531 44.003906 -8.691406 40.609375 -5.015625 C 37.210938 -1.347656 33.101562 0.484375 28.28125 0.484375 C 23.46875 0.484375 19.6875 -1.535156 16.9375 -5.578125 L 16.9375 0 L 5.15625 0 L 5.15625 -50.9375 L 16.9375 -50.9375 Z M 16.9375 -33.375 "/></g></g></g><g fill="rgb(10.5896%, 18.818665%, 38.038635%)" fill-opacity="1"><g transform="translate(189.74155, 80.483603)"><g><path d="M 28.21875 -12.03125 C 29.78125 -13.6875 30.5625 -16.078125 30.5625 -19.203125 C 30.5625 -22.328125 29.753906 -24.703125 28.140625 -26.328125 C 26.535156 -27.953125 24.632812 -28.765625 22.4375 -28.765625 C 20.238281 -28.765625 18.347656 -27.953125 16.765625 -26.328125 C 15.179688 -24.703125 14.390625 -22.328125 14.390625 -19.203125 C 14.390625 -16.078125 15.203125 -13.6875 16.828125 -12.03125 C 18.453125 -10.382812 20.363281 -9.5625 22.5625 -9.5625 C 24.769531 -9.5625 26.65625 -10.382812 28.21875 -12.03125 Z M 8.21875 -4.953125 C 4.34375 -8.578125 2.40625 -13.347656 2.40625 -19.265625 C 2.40625 -25.191406 4.332031 -29.929688 8.1875 -33.484375 C 12.039062 -37.035156 16.8125 -38.8125 22.5 -38.8125 C 28.195312 -38.8125 32.957031 -37.035156 36.78125 -33.484375 C 40.613281 -29.929688 42.53125 -25.191406 42.53125 -19.265625 C 42.53125 -13.347656 40.625 -8.578125 36.8125 -4.953125 C 33.007812 -1.328125 28.265625 0.484375 22.578125 0.484375 C 16.890625 0.484375 12.101562 -1.328125 8.21875 -4.953125 Z M 8.21875 -4.953125 "/></g></g></g><g fill="rgb(10.5896%, 18.818665%, 38.038635%)" fill-opacity="1"><g transform="translate(234.684115, 80.483603)"><g><path d="M 28.21875 -12.03125 C 29.78125 -13.6875 30.5625 -16.078125 30.5625 -19.203125 C 30.5625 -22.328125 29.753906 -24.703125 28.140625 -26.328125 C 26.535156 -27.953125 24.632812 -28.765625 22.4375 -28.765625 C 20.238281 -28.765625 18.347656 -27.953125 16.765625 -26.328125 C 15.179688 -24.703125 14.390625 -22.328125 14.390625 -19.203125 C 14.390625 -16.078125 15.203125 -13.6875 16.828125 -12.03125 C 18.453125 -10.382812 20.363281 -9.5625 22.5625 -9.5625 C 24.769531 -9.5625 26.65625 -10.382812 28.21875 -12.03125 Z M 8.21875 -4.953125 C 4.34375 -8.578125 2.40625 -13.347656 2.40625 -19.265625 C 2.40625 -25.191406 4.332031 -29.929688 8.1875 -33.484375 C 12.039062 -37.035156 16.8125 -38.8125 22.5 -38.8125 C 28.195312 -38.8125 32.957031 -37.035156 36.78125 -33.484375 C 40.613281 -29.929688 42.53125 -25.191406 42.53125 -19.265625 C 42.53125 -13.347656 40.625 -8.578125 36.8125 -4.953125 C 33.007812 -1.328125 28.265625 0.484375 22.578125 0.484375 C 16.890625 0.484375 12.101562 -1.328125 8.21875 -4.953125 Z M 8.21875 -4.953125 "/></g></g></g><g fill="rgb(10.5896%, 18.818665%, 38.038635%)" fill-opacity="1"><g transform="translate(279.62668, 80.483603)"><g><path d="M 16.9375 0 L 5.15625 0 L 5.15625 -50.9375 L 16.9375 -50.9375 L 16.9375 -22.375 L 28.84375 -38.40625 L 44.671875 -38.40625 L 28.21875 -18.796875 L 44.671875 0 L 29.046875 0 L 16.9375 -15.34375 Z M 16.9375 0 "/></g></g></g><g fill="rgb(10.5896%, 18.818665%, 38.038635%)" fill-opacity="1"><g transform="translate(324.569245, 80.483603)"><g/></g></g><g fill="rgb(10.5896%, 18.818665%, 38.038635%)" fill-opacity="1"><g transform="translate(345.216671, 80.483603)"><g><path d="M 17.484375 -33.890625 C 17.484375 -32.078125 16.863281 -30.550781 15.625 -29.3125 C 14.382812 -28.082031 12.859375 -27.46875 11.046875 -27.46875 C 9.234375 -27.46875 7.707031 -28.082031 6.46875 -29.3125 C 5.226562 -30.550781 4.609375 -32.078125 4.609375 -33.890625 C 4.609375 -35.703125 5.226562 -37.226562 6.46875 -38.46875 C 7.707031 -39.707031 9.234375 -40.328125 11.046875 -40.328125 C 12.859375 -40.328125 14.382812 -39.707031 15.625 -38.46875 C 16.863281 -37.226562 17.484375 -35.703125 17.484375 -33.890625 Z M 17.484375 -6.4375 C 17.484375 -4.625 16.863281 -3.097656 15.625 -1.859375 C 14.382812 -0.617188 12.859375 0 11.046875 0 C 9.234375 0 7.707031 -0.617188 6.46875 -1.859375 C 5.226562 -3.097656 4.609375 -4.625 4.609375 -6.4375 C 4.609375 -8.25 5.226562 -9.773438 6.46875 -11.015625 C 7.707031 -12.253906 9.234375 -12.875 11.046875 -12.875 C 12.859375 -12.875 14.382812 -12.253906 15.625 -11.015625 C 16.863281 -9.773438 17.484375 -8.25 17.484375 -6.4375 Z M 17.484375 -6.4375 "/></g></g></g></svg>